<?xml version="1.0" encoding="UTF-8"?>
<!DOCTYPE svg PUBLIC "-//W3C//DTD SVG 1.1//EN" "http://www.w3.org/Graphics/SVG/1.1/DTD/svg11.dtd">
<!-- Creator: CorelDRAW X8 -->
<svg xmlns="http://www.w3.org/2000/svg" xml:space="preserve" width="297mm" height="420mm" version="1.1" style="shape-rendering:geometricPrecision; text-rendering:geometricPrecision; image-rendering:optimizeQuality; fill-rule:evenodd; clip-rule:evenodd"
viewBox="0 0 29700 42000"
 xmlns:xlink="http://www.w3.org/1999/xlink">
 <defs>
  <style type="text/css">
   <![CDATA[
    .str0 {stroke:black;stroke-width:0.01}
    .str1 {stroke:black;stroke-width:0.01;stroke-linejoin:bevel}
    .fil2 {fill:none}
    .fil1 {fill:black}
    .fil3 {fill:black;fill-rule:nonzero}
    .fil0 {fill:url(#id0)}
   ]]>
  </style>
  <linearGradient id="id0" gradientUnits="userSpaceOnUse" x1="17012.8" y1="6256.59" x2="14282.9" y2="29733.8">
   <stop offset="0" style="stop-opacity:1; stop-color:#A13431"/>
   <stop offset="1" style="stop-opacity:1; stop-color:#FF6600"/>
  </linearGradient>
 </defs>
 <g id="Camada_x0020_1">
  <metadata id="CorelCorpID_0Corel-Layer"/>
  <path class="fil0 str0" d="M10691 20622l523 -909 -2910 -5162 2442 -3969 3390 -728 1512 1068 1511 -1068 3391 728 2442 3969 -2910 5162 523 909 -1644 1733 -157 888 -2817 -966 0 -1490 2719 -1555 -253 -444 -2805 553 -2805 -553 -254 444 2720 1555 0 1490 -2817 966 -157 -888 -1644 -1733zm15869 5082l0 -15418c941,-940 941,-2465 0,-3406 -940,-940 -2465,-940 -3406,0l-15013 0c-608,-608 -1495,-846 -2326,-623 -831,223 -1480,872 -1703,1703 -222,831 15,1718 624,2326l0 15418c-609,609 -846,1495 -624,2327 223,831 872,1480 1703,1702 831,223 1718,-14 2326,-623l15013 0c941,941 2466,941 3406,0 941,-940 941,-2465 0,-3406zm-479 -15897l-2448 -2448c676,-676 1772,-676 2448,0 676,676 676,1772 0,2448zm-13510 13884l3077 -869 3077 869 -111 628 -2966 750 -2966 -750 -111 -628zm-4909 -16332l-2448 2448c-437,-437 -608,-1075 -448,-1672 161,-597 627,-1064 1224,-1224 598,-160 1235,11 1672,448zm-2448 18824l533 532 -1010 1010c-105,-561 74,-1138 477,-1542zm1304 1304l453 452 -650 650c-221,220 -537,317 -843,258 52,-273 190,-523 394,-713l646 -647zm-1258 35l646 -647 453 452 -714 714c-180,168 -404,281 -646,327 -47,-307 49,-619 261,-846zm1870 577l532 532c-403,404 -980,583 -1541,478l1009 -1010zm16503 532l532 -532 1010 1010c-561,105 -1138,-74 -1542,-478zm2018 -590l-714 -714 452 -452 647 647c211,227 308,539 261,846 -242,-46 -466,-159 -646,-327zm-102 -1326l532 -532c404,404 583,981 478,1542l-1010 -1010zm-1224 1224l452 -452 647 647c203,190 341,440 394,713 -306,59 -622,-38 -843,-258l-650 -650z"/>
  <polygon class="fil1 str0" points="17711,15594 20716,12500 16819,14043 "/>
  <polygon class="fil1 str0" points="13585,15594 14477,14043 10580,12500 "/>
  <path class="fil2 str0" d="M5214 9807l2448 -2448c-437,-437 -1074,-608 -1672,-448 -597,160 -1063,627 -1224,1224 -160,597 11,1235 448,1672z"/>
  <path class="fil2 str0" d="M26081 9807c676,-676 676,-1772 0,-2448 -676,-676 -1772,-676 -2448,0l2448 2448z"/>
  <path class="fil2 str0" d="M20082 19713l2910 -5162 -2442 -3969 -3391 -728 -1511 1068 -1512 -1068 -3390 728 -2442 3969 2910 5162 -523 909 1644 1733 157 888 2817 -966 0 -1490 -2720 -1555 254 -444 2805 553 2805 -553 253 444 -2719 1555 0 1490 2817 966 157 -888 1644 -1733 -523 -909zm-2371 -4119l-892 -1551 3897 -1543 -3005 3094zm-3234 -1551l-892 1551 -3005 -3094 3897 1543z"/>
  <polygon class="fil2 str0" points="18725,23691 15648,22822 12571,23691 12682,24319 15648,25069 18614,24319 "/>
  <path class="fil2 str0" d="M26559 27725c105,-561 -74,-1138 -478,-1542l-532 532 1010 1010z"/>
  <path class="fil2 str0" d="M26297 28368c47,-307 -50,-619 -261,-846l-647 -647 -452 452 714 714c180,168 404,281 646,327z"/>
  <path class="fil2 str0" d="M25424 28134l-647 -647 -452 452 650 650c221,220 537,317 843,258 -53,-273 -191,-523 -394,-713z"/>
  <path class="fil2 str0" d="M25175 29109l-1010 -1010 -532 532c404,404 981,583 1542,478z"/>
  <path class="fil2 str0" d="M5747 26715l-533 -532c-403,404 -582,981 -477,1542l1010 -1010z"/>
  <path class="fil2 str0" d="M5645 28041l714 -714 -453 -452 -646 647c-212,227 -308,539 -261,846 242,-46 466,-159 646,-327z"/>
  <path class="fil2 str0" d="M6321 28589l650 -650 -453 -452 -646 647c-204,190 -342,440 -394,713 306,59 622,-38 843,-258z"/>
  <path class="fil2 str0" d="M7662 28631l-532 -532 -1009 1010c561,105 1138,-74 1541,-478z"/>
  <polyline class="fil2 str1" points="15648,25069 12682,24319 12571,23691 "/>
  <polyline class="fil2 str1" points="12492,23243 12335,22355 10691,20622 11214,19713 "/>
  <polyline class="fil2 str1" points="13585,15594 14477,14043 10580,12500 "/>
  <polyline class="fil2 str1" points="10916,19184 8304,14551 10746,10582 14136,9854 15648,10922 "/>
  <line class="fil2 str1" x1="12571" y1="23691" x2="15648" y2= "22822" />
  <polyline class="fil2 str1" points="12492,23243 15309,22277 15309,20787 12589,19232 12843,18788 15648,19341 "/>
  <line class="fil2 str1" x1="8304" y1="14551" x2="11214" y2= "19713" />
  <line class="fil2 str1" x1="13585" y1="15594" x2="10580" y2= "12500" />
  <polyline class="fil2 str1" points="15648,25069 18614,24319 18725,23691 "/>
  <polyline class="fil2 str1" points="18804,23243 18961,22355 20605,20622 20082,19713 "/>
  <polyline class="fil2 str1" points="17711,15594 16819,14043 20716,12500 "/>
  <polyline class="fil2 str1" points="20380,19184 22992,14551 20550,10582 17159,9854 15648,10922 "/>
  <line class="fil2 str1" x1="18725" y1="23691" x2="15648" y2= "22822" />
  <polyline class="fil2 str1" points="18804,23243 15987,22277 15987,20787 18706,19232 18453,18788 15648,19341 "/>
  <line class="fil2 str1" x1="22992" y1="14551" x2="20082" y2= "19713" />
  <line class="fil2 str1" x1="17711" y1="15594" x2="20716" y2= "12500" />
  <line class="fil2 str1" x1="8141" y1="6880" x2="23154" y2= "6880" />
  <line class="fil2 str1" x1="4736" y1="10286" x2="4736" y2= "25704" />
  <line class="fil2 str1" x1="26560" y1="10286" x2="26560" y2= "25704" />
  <line class="fil2 str1" x1="23154" y1="29110" x2="8141" y2= "29110" />
  <path class="fil2 str1" d="M26560 10286c941,-940 941,-2465 0,-3406 -940,-940 -2465,-940 -3406,0"/>
  <path class="fil2 str1" d="M26081 9807c676,-676 676,-1772 0,-2448 -676,-676 -1772,-676 -2448,0"/>
  <line class="fil2 str1" x1="23633" y1="7359" x2="26081" y2= "9807" />
  <path class="fil2 str1" d="M8141 6880c-608,-608 -1495,-846 -2326,-623 -831,223 -1480,872 -1703,1703 -222,831 15,1718 624,2326"/>
  <path class="fil2 str1" d="M7662 7359c-437,-437 -1074,-608 -1672,-448 -597,160 -1063,627 -1224,1224 -160,597 11,1235 448,1672"/>
  <line class="fil2 str1" x1="7662" y1="7359" x2="5214" y2= "9807" />
  <path class="fil2 str1" d="M23154 29110c941,941 2466,941 3406,0 941,-940 941,-2465 0,-3406"/>
  <path class="fil2 str1" d="M4736 25704c-609,609 -846,1495 -624,2327 223,831 872,1480 1703,1702 831,223 1718,-14 2326,-623"/>
  <path class="fil2 str1" d="M5214 26183c-403,404 -582,981 -477,1542"/>
  <path class="fil2 str1" d="M6121 29109c561,105 1138,-74 1541,-478"/>
  <line class="fil2 str1" x1="7662" y1="28631" x2="7130" y2= "28099" />
  <line class="fil2 str1" x1="6971" y1="27939" x2="6518" y2= "27487" />
  <line class="fil2 str1" x1="6359" y1="27327" x2="5906" y2= "26875" />
  <line class="fil2 str1" x1="5747" y1="26715" x2="5214" y2= "26183" />
  <line class="fil2 str1" x1="5906" y1="26875" x2="5260" y2= "27522" />
  <line class="fil2 str1" x1="5747" y1="26715" x2="4737" y2= "27725" />
  <line class="fil2 str1" x1="6518" y1="27487" x2="5872" y2= "28134" />
  <line class="fil2 str1" x1="6359" y1="27327" x2="5645" y2= "28041" />
  <line class="fil2 str1" x1="7130" y1="28099" x2="6121" y2= "29109" />
  <line class="fil2 str1" x1="6971" y1="27939" x2="6321" y2= "28589" />
  <path class="fil2 str1" d="M5260 27522c-212,227 -308,539 -261,846"/>
  <path class="fil2 str1" d="M4999 28368c242,-46 466,-159 646,-327"/>
  <path class="fil2 str1" d="M5872 28134c-204,190 -342,440 -394,713"/>
  <path class="fil2 str1" d="M5478 28847c306,59 622,-38 843,-258"/>
  <path class="fil2 str1" d="M26559 27725c105,-561 -74,-1138 -478,-1542"/>
  <path class="fil2 str1" d="M23633 28631c404,404 981,583 1542,478"/>
  <line class="fil2 str1" x1="23633" y1="28631" x2="24165" y2= "28099" />
  <line class="fil2 str1" x1="24325" y1="27939" x2="24777" y2= "27487" />
  <line class="fil2 str1" x1="24937" y1="27327" x2="25389" y2= "26875" />
  <line class="fil2 str1" x1="25549" y1="26715" x2="26081" y2= "26183" />
  <line class="fil2 str1" x1="25389" y1="26875" x2="26036" y2= "27522" />
  <line class="fil2 str1" x1="25549" y1="26715" x2="26559" y2= "27725" />
  <line class="fil2 str1" x1="24777" y1="27487" x2="25424" y2= "28134" />
  <line class="fil2 str1" x1="24937" y1="27327" x2="25651" y2= "28041" />
  <line class="fil2 str1" x1="24165" y1="28099" x2="25175" y2= "29109" />
  <line class="fil2 str1" x1="24325" y1="27939" x2="24975" y2= "28589" />
  <path class="fil2 str1" d="M26297 28368c47,-307 -50,-619 -261,-846"/>
  <path class="fil2 str1" d="M25651 28041c180,168 404,281 646,327"/>
  <path class="fil2 str1" d="M25818 28847c-53,-273 -191,-523 -394,-713"/>
  <path class="fil2 str1" d="M24975 28589c221,220 537,317 843,258"/>
  <path class="fil1 str0" d="M10691 20622l523 -909 -2910 -5162 2442 -3969 3390 -728 1512 1068 1511 -1068 3391 728 2442 3969 -2910 5162 523 909 -1644 1733 -157 888 -2817 -966 0 -1490 2719 -1555 -253 -444 -2805 553 -2805 -553 -254 444 2720 1555 0 1490 -2817 966 -157 -888 -1644 -1733zm15869 5082l0 -15418c941,-940 941,-2465 0,-3406 -940,-940 -2465,-940 -3406,0l-15013 0c-608,-608 -1495,-846 -2326,-623 -831,223 -1480,872 -1703,1703 -222,831 15,1718 624,2326l0 15418c-609,609 -846,1495 -624,2327 223,831 872,1480 1703,1702 831,223 1718,-14 2326,-623l15013 0c941,941 2466,941 3406,0 941,-940 941,-2465 0,-3406zm-479 -15897l-2448 -2448c676,-676 1772,-676 2448,0 676,676 676,1772 0,2448zm-13510 13884l3077 -869 3077 869 -111 628 -2966 750 -2966 -750 -111 -628zm-4909 -16332l-2448 2448c-437,-437 -608,-1075 -448,-1672 161,-597 627,-1064 1224,-1224 598,-160 1235,11 1672,448zm-2448 18824l533 532 -1010 1010c-105,-561 74,-1138 477,-1542zm1304 1304l453 452 -650 650c-221,220 -537,317 -843,258 52,-273 190,-523 394,-713l646 -647zm-1258 35l646 -647 453 452 -714 714c-180,168 -404,281 -646,327 -47,-307 49,-619 261,-846zm1870 577l532 532c-403,404 -980,583 -1541,478l1009 -1010zm16503 532l532 -532 1010 1010c-561,105 -1138,-74 -1542,-478zm2018 -590l-714 -714 452 -452 647 647c211,227 308,539 261,846 -242,-46 -466,-159 -646,-327zm-102 -1326l532 -532c404,404 583,981 478,1542l-1010 -1010zm-1224 1224l452 -452 647 647c203,190 341,440 394,713 -306,59 -622,-38 -843,-258l-650 -650z"/>
 </g>
 <g id="_0">
  <metadata id="CorelCorpID_1Corel-Layer"/>
  <path class="fil3" d="M5634 34538c-48,-6 -91,-30 -128,-70l-33 -63 0 -1653c40,-91 102,-136 188,-136 53,6 99,31 138,79l26 54 0 1432 1935 0c92,24 144,88 154,190 -23,96 -79,152 -170,167l-2110 0zm2486 0c-25,-6 -48,-15 -71,-25 -22,-11 -43,-29 -62,-56l-26 -52 0 -1656 41 -75c21,-21 45,-36 71,-45 26,-8 51,-13 75,-13 27,6 49,12 69,21 20,9 41,27 62,55l34 65 0 1638c-26,89 -91,137 -193,143zm863 0c-151,-8 -284,-69 -399,-182 -79,-99 -127,-216 -146,-350l0 -863c19,-143 83,-271 190,-386 106,-85 224,-132 352,-141l1331 0c166,16 309,85 427,209 85,108 132,230 141,368l0 769c-9,172 -77,320 -206,443 -101,80 -216,125 -344,133l-1346 0zm1453 -398c45,-46 73,-99 83,-160l0 -798c-3,-57 -28,-107 -73,-149 -40,-31 -83,-51 -127,-59l-1341 0c-46,3 -84,22 -118,57 -40,47 -63,103 -70,167l0 761c7,68 35,128 84,178 33,26 70,41 112,44l1340 0 110 -41zm706 398c-50,-6 -93,-30 -130,-70l-34 -63 0 -1648c18,-127 85,-173 204,-138l1877 1377 0 -1231 60 -102c44,-31 91,-47 141,-47 91,23 144,80 159,170l0 1585c-22,145 -102,190 -240,136l-1849 -1359 0 1255c-19,49 -53,89 -102,120l-86 15zm2567 0c-23,-6 -44,-14 -65,-23 -21,-9 -41,-24 -60,-47l-34 -63 0 -918c23,-78 73,-125 151,-141l1936 0 94 53c19,27 33,54 42,79 10,25 11,57 2,95l-42 79c-21,13 -39,25 -54,32 -16,8 -36,15 -61,22l-1716 0 0 475 1933 0c99,16 151,79 156,190 -17,96 -73,152 -169,167l-2113 0zm-13 -1564l-99 -47c-21,-30 -35,-58 -42,-84 -7,-26 -8,-58 -5,-96 36,-75 91,-119 162,-131l2117 0c103,16 157,79 162,188 -5,26 -12,49 -20,68 -9,19 -24,39 -45,60l-83 42 -2147 0zm2481 1564c-51,-6 -94,-30 -131,-70l-34 -63 0 -1648c18,-127 85,-173 204,-138l1877 1377 0 -1231 61 -102c43,-31 90,-47 141,-47 90,23 143,80 159,170l0 1585c-23,145 -103,190 -240,136l-1850 -1359 0 1255c-19,49 -52,89 -101,120l-86 15zm2918 0c-74,-8 -146,-25 -215,-49 -69,-24 -131,-65 -186,-120 -40,-45 -71,-94 -93,-145 -21,-51 -38,-105 -48,-163l0 -889c14,-80 35,-154 65,-222 30,-68 74,-132 133,-193 49,-45 102,-79 161,-102 58,-22 120,-35 186,-39l1450 0c70,9 136,26 199,51 62,25 118,68 169,129 42,52 70,108 85,168 14,60 19,124 14,192 -12,28 -27,52 -44,72 -17,20 -41,37 -71,51l-101 8 -86 -53c-39,-45 -56,-89 -54,-133 2,-43 -7,-73 -30,-91l-78 -36 -1450 0c-21,3 -42,10 -64,19 -22,10 -43,24 -62,43 -19,28 -34,57 -46,89 -13,31 -20,62 -24,94l0 775c4,22 9,45 17,70 8,24 18,45 30,62 19,13 40,24 62,34 23,11 45,18 66,21l1473 0c49,-14 77,-49 84,-104l-3 -266 -1197 0c-66,-16 -106,-36 -119,-60 -13,-25 -23,-49 -31,-74 -8,-26 -9,-56 -4,-91 24,-92 78,-137 159,-135l1390 0c100,12 154,68 162,170l0 471c-3,67 -19,130 -47,191 -28,61 -70,115 -127,161 -42,29 -85,50 -128,65 -44,14 -91,24 -144,29l-1453 0zm2212 0c-24,-6 -48,-15 -70,-25 -23,-11 -44,-29 -63,-56l-26 -52 0 -1656 42 -75c21,-21 44,-36 70,-45 26,-8 51,-13 76,-13 26,6 49,12 69,21 20,9 40,27 61,55l34 65 0 1638c-26,89 -90,137 -193,143zm509 0c-51,-6 -94,-30 -131,-70l-34 -63 0 -1648c18,-127 86,-173 204,-138l1878 1377 0 -1231 60 -102c43,-31 90,-47 141,-47 90,23 143,80 159,170l0 1585c-23,145 -103,190 -240,136l-1849 -1359 0 1255c-20,49 -53,89 -102,120l-86 15zm2566 0c-22,-6 -44,-14 -65,-23 -21,-9 -40,-24 -60,-47l-34 -63 0 -918c23,-78 73,-125 151,-141l1936 0 94 53c19,27 33,54 43,79 9,25 10,57 1,95l-41 79c-21,13 -40,25 -55,32 -16,8 -36,15 -60,22l-1717 0 0 475 1933 0c99,16 151,79 157,190 -18,96 -74,152 -170,167l-2113 0zm-13 -1564l-99 -47c-21,-30 -34,-58 -42,-84 -7,-26 -8,-58 -5,-96 37,-75 91,-119 162,-131l2118 0c103,16 156,79 162,188 -6,26 -13,49 -21,68 -9,19 -24,39 -45,60l-83 42 -2147 0z"/>
 </g>
</svg>
