<?xml version="1.0" encoding="UTF-8"?>
<!DOCTYPE svg PUBLIC "-//W3C//DTD SVG 1.1//EN" "http://www.w3.org/Graphics/SVG/1.1/DTD/svg11.dtd">
<!-- Creator: CorelDRAW X8 -->
<svg xmlns="http://www.w3.org/2000/svg" xml:space="preserve" width="420mm" height="84.6666mm" version="1.1" style="shape-rendering:geometricPrecision; text-rendering:geometricPrecision; image-rendering:optimizeQuality; fill-rule:evenodd; clip-rule:evenodd"
viewBox="0 0 42000 8467"
 xmlns:xlink="http://www.w3.org/1999/xlink">
 <defs>
  <style type="text/css">
   <![CDATA[
    .fil3 {fill:none}
    .fil2 {fill:url(#id0)}
    .fil0 {fill:url(#id1)}
    .fil1 {fill:url(#id2)}
    .fil4 {fill:url(#id3)}
    .fil5 {fill:url(#id4);fill-rule:nonzero}
   ]]>
  </style>
  <linearGradient id="id0" gradientUnits="userSpaceOnUse" x1="4540.19" y1="3177.2" x2="4170.93" y2="3898.18">
   <stop offset="0" style="stop-opacity:1; stop-color:#A9392D"/>
   <stop offset="0.65098" style="stop-opacity:1; stop-color:#D44F17"/>
   <stop offset="1" style="stop-opacity:1; stop-color:#FF6600"/>
  </linearGradient>
  <linearGradient id="id1" gradientUnits="userSpaceOnUse" x1="5464.15" y1="1611.95" x2="4789.32" y2="7415.56">
   <stop offset="0" style="stop-opacity:1; stop-color:#A13431"/>
   <stop offset="1" style="stop-opacity:1; stop-color:#FF6600"/>
  </linearGradient>
  <linearGradient id="id2" gradientUnits="userSpaceOnUse" x1="5842.95" y1="3156.98" x2="5952.85" y2="3918.41">
   <stop offset="0" style="stop-opacity:1; stop-color:#A9382D"/>
   <stop offset="0.8" style="stop-opacity:1; stop-color:#D04D19"/>
   <stop offset="1" style="stop-opacity:1; stop-color:#F76204"/>
  </linearGradient>
  <radialGradient id="id3" gradientUnits="userSpaceOnUse" gradientTransform="matrix(-0.124 1.10392 -1.085 -0.126163 10660 -576)" cx="5126.73" cy="4513.76" r="3271.17" fx="5126.73" fy="4513.76">
   <stop offset="0" style="stop-opacity:1; stop-color:#FF6600"/>
   <stop offset="0.419608" style="stop-opacity:1; stop-color:#D04D19"/>
   <stop offset="1" style="stop-opacity:1; stop-color:#A13431"/>
  </radialGradient>
  <linearGradient id="id4" gradientUnits="userSpaceOnUse" x1="24872.1" y1="2797.53" x2="25079.6" y2="6214.07">
   <stop offset="0" style="stop-opacity:1; stop-color:#A13431"/>
   <stop offset="0.760784" style="stop-opacity:1; stop-color:#D04D19"/>
   <stop offset="1" style="stop-opacity:1; stop-color:#FF6600"/>
  </linearGradient>
 </defs>
 <g id="_0">
  <metadata id="CorelCorpID_0Corel-Layer"/>
  <path class="fil0" d="M3901 5163l130 -225 -720 -1276 604 -981 838 -180 374 264 373 -264 839 180 603 981 -719 1276 129 225 -406 429 -39 219 -697 -239 0 -368 673 -385 -63 -109 -693 136 -694 -136 -62 109 672 385 0 368 -696 239 -39 -219 -407 -429zm3923 1256l0 -3811c233,-232 233,-609 0,-842 -232,-232 -609,-232 -842,0l-3711 0c-150,-150 -369,-209 -575,-154 -205,55 -366,216 -421,421 -55,205 4,425 154,575l0 3811c-150,151 -209,370 -154,576 55,205 216,365 421,420 206,56 425,-3 575,-154l3711 0c233,233 610,233 842,0 233,-232 233,-609 0,-842zm-118 -3929l-605 -605c167,-168 438,-168 605,0 167,167 167,438 0,605zm-3340 3432l761 -215 760 215 -27 155 -733 185 -733 -185 -28 -155zm-1213 -4037l-605 605c-109,-108 -151,-266 -111,-414 39,-147 155,-263 302,-302 148,-40 306,2 414,111zm-605 4653l131 131 -249 250c-26,-139 18,-281 118,-381zm322 322l112 112 -161 161c-55,54 -133,78 -208,63 13,-67 47,-129 97,-176l160 -160zm-311 9l160 -160 111 112 -176 176c-45,42 -100,70 -160,81 -11,-76 13,-153 65,-209zm462 142l132 132c-100,100 -243,144 -381,118l249 -250zm4080 132l131 -132 250 250c-139,26 -281,-18 -381,-118zm498 -146l-176 -176 112 -112 160 160c52,56 76,133 64,209 -60,-11 -115,-39 -160,-81zm-25 -328l132 -131c100,100 144,242 118,381l-250 -250zm-302 303l112 -112 159 160c51,47 85,109 98,176 -76,15 -154,-9 -209,-63l-160 -161z"/>
  <polygon class="fil1" points="5637,3920 6380,3155 5416,3537 "/>
  <polygon class="fil2" points="4617,3920 4837,3537 3874,3155 "/>
  <path class="fil3" d="M2548 2490l605 -605c-108,-109 -266,-151 -414,-111 -147,39 -263,155 -302,302 -40,148 2,306 111,414z"/>
  <path class="fil3" d="M7706 2490c167,-167 167,-438 0,-605 -167,-168 -438,-168 -605,0l605 605z"/>
  <path class="fil3" d="M6223 4938l719 -1276 -603 -981 -839 -180 -373 264 -374 -264 -838 180 -604 981 720 1276 -130 225 407 429 39 219 696 -239 0 -368 -672 -385 62 -109 694 136 693 -136 63 109 -673 385 0 368 697 239 39 -219 406 -429 -129 -225zm-586 -1018l-221 -383 964 -382 -743 765zm-800 -383l-220 383 -743 -765 963 382z"/>
  <polygon class="fil3" points="5887,5922 5127,5707 4366,5922 4394,6077 5127,6262 5860,6077 "/>
  <path class="fil3" d="M7824 6919c26,-139 -18,-281 -118,-381l-132 131 250 250z"/>
  <path class="fil3" d="M7759 7078c12,-76 -12,-153 -64,-209l-160 -160 -112 112 176 176c45,42 100,70 160,81z"/>
  <path class="fil3" d="M7543 7020l-159 -160 -112 112 160 161c55,54 133,78 209,63 -13,-67 -47,-129 -98,-176z"/>
  <path class="fil3" d="M7482 7261l-250 -250 -131 132c100,100 242,144 381,118z"/>
  <path class="fil3" d="M2679 6669l-131 -131c-100,100 -144,242 -118,381l249 -250z"/>
  <path class="fil3" d="M2654 6997l176 -176 -111 -112 -160 160c-52,56 -76,133 -65,209 60,-11 115,-39 160,-81z"/>
  <path class="fil3" d="M2821 7133l161 -161 -112 -112 -160 160c-50,47 -84,109 -97,176 75,15 153,-9 208,-63z"/>
  <path class="fil3" d="M3153 7143l-132 -132 -249 250c138,26 281,-18 381,-118z"/>
  <polyline class="fil3" points="5127,6262 4394,6077 4366,5922 "/>
  <polyline class="fil3" points="4347,5811 4308,5592 3901,5163 4031,4938 "/>
  <polyline class="fil3" points="4617,3920 4837,3537 3874,3155 "/>
  <polyline class="fil3" points="3957,4808 3311,3662 3915,2681 4753,2501 5127,2765 "/>
  <line class="fil3" x1="4366" y1="5922" x2="5127" y2= "5707" />
  <polyline class="fil3" points="4347,5811 5043,5572 5043,5204 4371,4819 4433,4710 5127,4846 "/>
  <line class="fil3" x1="3311" y1="3662" x2="4031" y2= "4938" />
  <line class="fil3" x1="4617" y1="3920" x2="3874" y2= "3155" />
  <polyline class="fil3" points="5127,6262 5860,6077 5887,5922 "/>
  <polyline class="fil3" points="5907,5811 5946,5592 6352,5163 6223,4938 "/>
  <polyline class="fil3" points="5637,3920 5416,3537 6380,3155 "/>
  <polyline class="fil3" points="6296,4808 6942,3662 6339,2681 5500,2501 5127,2765 "/>
  <line class="fil3" x1="5887" y1="5922" x2="5127" y2= "5707" />
  <polyline class="fil3" points="5907,5811 5210,5572 5210,5204 5883,4819 5820,4710 5127,4846 "/>
  <line class="fil3" x1="6942" y1="3662" x2="6223" y2= "4938" />
  <line class="fil3" x1="5637" y1="3920" x2="6380" y2= "3155" />
  <line class="fil3" x1="3271" y1="1766" x2="6982" y2= "1766" />
  <line class="fil3" x1="2429" y1="2608" x2="2429" y2= "6419" />
  <line class="fil3" x1="7824" y1="2608" x2="7824" y2= "6419" />
  <line class="fil3" x1="6982" y1="7261" x2="3271" y2= "7261" />
  <path class="fil3" d="M7824 2608c233,-232 233,-609 0,-842 -232,-232 -609,-232 -842,0"/>
  <path class="fil3" d="M7706 2490c167,-167 167,-438 0,-605 -167,-168 -438,-168 -605,0"/>
  <line class="fil3" x1="7101" y1="1885" x2="7706" y2= "2490" />
  <path class="fil3" d="M3271 1766c-150,-150 -369,-209 -575,-154 -205,55 -366,216 -421,421 -55,205 4,425 154,575"/>
  <path class="fil3" d="M3153 1885c-108,-109 -266,-151 -414,-111 -147,39 -263,155 -302,302 -40,148 2,306 111,414"/>
  <line class="fil3" x1="3153" y1="1885" x2="2548" y2= "2490" />
  <path class="fil3" d="M6982 7261c233,233 610,233 842,0 233,-232 233,-609 0,-842"/>
  <path class="fil3" d="M2429 6419c-150,151 -209,370 -154,576 55,205 216,365 421,420 206,56 425,-3 575,-154"/>
  <path class="fil3" d="M2548 6538c-100,100 -144,242 -118,381"/>
  <path class="fil3" d="M2772 7261c138,26 281,-18 381,-118"/>
  <line class="fil3" x1="3153" y1="7143" x2="3021" y2= "7011" />
  <line class="fil3" x1="2982" y1="6972" x2="2870" y2= "6860" />
  <line class="fil3" x1="2830" y1="6821" x2="2719" y2= "6709" />
  <line class="fil3" x1="2679" y1="6669" x2="2548" y2= "6538" />
  <line class="fil3" x1="2719" y1="6709" x2="2559" y2= "6869" />
  <line class="fil3" x1="2679" y1="6669" x2="2430" y2= "6919" />
  <line class="fil3" x1="2870" y1="6860" x2="2710" y2= "7020" />
  <line class="fil3" x1="2830" y1="6821" x2="2654" y2= "6997" />
  <line class="fil3" x1="3021" y1="7011" x2="2772" y2= "7261" />
  <line class="fil3" x1="2982" y1="6972" x2="2821" y2= "7133" />
  <path class="fil3" d="M2559 6869c-52,56 -76,133 -65,209"/>
  <path class="fil3" d="M2494 7078c60,-11 115,-39 160,-81"/>
  <path class="fil3" d="M2710 7020c-50,47 -84,109 -97,176"/>
  <path class="fil3" d="M2613 7196c75,15 153,-9 208,-63"/>
  <path class="fil3" d="M7824 6919c26,-139 -18,-281 -118,-381"/>
  <path class="fil3" d="M7101 7143c100,100 242,144 381,118"/>
  <line class="fil3" x1="7101" y1="7143" x2="7232" y2= "7011" />
  <line class="fil3" x1="7272" y1="6972" x2="7384" y2= "6860" />
  <line class="fil3" x1="7423" y1="6821" x2="7535" y2= "6709" />
  <line class="fil3" x1="7574" y1="6669" x2="7706" y2= "6538" />
  <line class="fil3" x1="7535" y1="6709" x2="7695" y2= "6869" />
  <line class="fil3" x1="7574" y1="6669" x2="7824" y2= "6919" />
  <line class="fil3" x1="7384" y1="6860" x2="7543" y2= "7020" />
  <line class="fil3" x1="7423" y1="6821" x2="7599" y2= "6997" />
  <line class="fil3" x1="7232" y1="7011" x2="7482" y2= "7261" />
  <line class="fil3" x1="7272" y1="6972" x2="7432" y2= "7133" />
  <path class="fil3" d="M7759 7078c12,-76 -12,-153 -64,-209"/>
  <path class="fil3" d="M7599 6997c45,42 100,70 160,81"/>
  <path class="fil3" d="M7641 7196c-13,-67 -47,-129 -98,-176"/>
  <path class="fil3" d="M7432 7133c55,54 133,78 209,63"/>
  <path class="fil4" d="M3901 5163l130 -225 -720 -1276 604 -981 838 -180 374 264 373 -264 839 180 603 981 -719 1276 129 225 -406 429 -39 219 -697 -239 0 -368 673 -385 -63 -109 -693 136 -694 -136 -62 109 672 385 0 368 -696 239 -39 -219 -407 -429zm3923 1256l0 -3811c233,-232 233,-609 0,-842 -232,-232 -609,-232 -842,0l-3711 0c-150,-150 -369,-209 -575,-154 -205,55 -366,216 -421,421 -55,205 4,425 154,575l0 3811c-150,151 -209,370 -154,576 55,205 216,365 421,420 206,56 425,-3 575,-154l3711 0c233,233 610,233 842,0 233,-232 233,-609 0,-842zm-118 -3929l-605 -605c167,-168 438,-168 605,0 167,167 167,438 0,605zm-3340 3432l761 -215 760 215 -27 155 -733 185 -733 -185 -28 -155zm-1213 -4037l-605 605c-109,-108 -151,-266 -111,-414 39,-147 155,-263 302,-302 148,-40 306,2 414,111zm-605 4653l131 131 -249 250c-26,-139 18,-281 118,-381zm322 322l112 112 -161 161c-55,54 -133,78 -208,63 13,-67 47,-129 97,-176l160 -160zm-311 9l160 -160 111 112 -176 176c-45,42 -100,70 -160,81 -11,-76 13,-153 65,-209zm462 142l132 132c-100,100 -243,144 -381,118l249 -250zm4080 132l131 -132 250 250c-139,26 -281,-18 -381,-118zm498 -146l-176 -176 112 -112 160 160c52,56 76,133 64,209 -60,-11 -115,-39 -160,-81zm-25 -328l132 -131c100,100 144,242 118,381l-250 -250zm-302 303l112 -112 159 160c51,47 85,109 98,176 -76,15 -154,-9 -209,-63l-160 -161z"/>
  <path class="fil5" d="M9556 5932c-72,-9 -135,-44 -189,-104l-50 -92 0 -2444c59,-134 151,-200 277,-200 80,8 148,46 204,116l39 81 0 2115 2860 0c136,36 212,130 227,282 -33,141 -117,223 -250,246l-3118 0zm3673 0c-36,-9 -71,-23 -105,-38 -32,-16 -63,-43 -92,-81l-38 -77 0 -2447 61 -112c31,-31 66,-53 104,-66 39,-13 76,-19 112,-19 39,8 72,18 102,31 30,12 60,39 91,81l50 96 0 2421c-38,130 -134,202 -285,211zm1276 0c-224,-12 -421,-102 -591,-269 -115,-147 -187,-319 -215,-517l0 -1276c28,-210 122,-401 281,-570 157,-126 331,-196 521,-208l1965 0c247,23 457,125 632,308 126,160 196,340 208,544l0 1136c-12,255 -113,473 -304,656 -149,118 -319,184 -509,196l-1988 0zm2146 -589c67,-67 108,-145 124,-236l0 -1179c-5,-85 -42,-158 -108,-220 -59,-46 -122,-75 -189,-88l-1981 0c-67,5 -125,33 -174,84 -59,70 -93,152 -104,247l0 1126c11,100 51,188 124,262 48,38 104,61 166,65l1980 0 162 -61zm1045 589c-75,-9 -139,-44 -193,-104l-50 -92 0 -2436c26,-188 126,-256 301,-204l2775 2034 0 -1818 88 -151c65,-46 134,-69 209,-69 133,33 212,117 235,250l0 2344c-34,213 -152,280 -355,200l-2733 -2008 0 1854c-28,72 -78,131 -150,177l-127 23zm3793 0c-34,-9 -66,-21 -97,-34 -31,-13 -60,-36 -88,-70l-51 -92 0 -1357c34,-116 108,-185 224,-208l2860 0 139 77c29,41 50,81 63,117 15,38 16,85 2,141l-61 116c-31,20 -58,37 -81,48 -23,12 -52,22 -89,33l-2536 0 0 701 2856 0c147,24 224,117 232,282 -26,141 -109,223 -251,246l-3122 0zm-20 -2312l-146 -70c-31,-43 -51,-85 -62,-123 -10,-38 -12,-86 -8,-142 54,-111 135,-175 240,-193l3129 0c152,23 232,116 240,277 -8,39 -19,72 -31,100 -13,29 -35,58 -66,89l-123 62 -3173 0zm3666 2312c-74,-9 -138,-44 -192,-104l-50 -92 0 -2436c25,-188 125,-256 300,-204l2775 2034 0 -1818 89 -151c64,-46 133,-69 208,-69 134,33 212,117 235,250l0 2344c-33,213 -151,280 -354,200l-2733 -2008 0 1854c-28,72 -78,131 -151,177l-127 23zm4314 0c-111,-12 -216,-37 -318,-73 -102,-36 -194,-95 -276,-177 -59,-67 -105,-138 -137,-214 -32,-76 -56,-156 -71,-241l0 -1314c20,-119 53,-228 97,-328 43,-100 109,-195 196,-285 72,-67 151,-117 237,-150 86,-34 178,-53 276,-58l2143 0c103,12 200,37 293,75 92,37 176,100 251,191 61,77 103,159 125,248 21,89 28,183 21,284 -18,41 -40,76 -66,106 -25,29 -60,54 -104,75l-150 12 -127 -78c-57,-67 -83,-132 -79,-196 3,-65 -11,-109 -45,-135l-116 -54 -2142 0c-31,5 -63,15 -95,28 -32,15 -62,36 -91,64 -28,42 -51,85 -69,131 -18,47 -29,93 -35,139l0 1145c6,33 14,68 25,104 12,36 27,67 45,92 28,19 59,35 92,51 34,15 66,26 97,30l2177 0c73,-20 114,-72 124,-154l-4 -393 -1769 0c-98,-23 -156,-53 -175,-88 -20,-37 -35,-73 -47,-110 -11,-38 -13,-82 -5,-134 35,-136 114,-202 234,-200l2055 0c147,18 226,102 239,251l0 697c-5,98 -29,192 -69,282 -42,90 -104,170 -189,239 -62,41 -125,73 -189,94 -64,22 -135,37 -212,44l-2147 0zm3269 0c-36,-9 -71,-23 -105,-38 -33,-16 -64,-43 -92,-81l-39 -77 0 -2447 62 -112c31,-31 66,-53 104,-66 39,-13 76,-19 112,-19 39,8 72,18 102,31 29,12 60,39 91,81l50 96 0 2421c-39,130 -134,202 -285,211zm751 0c-74,-9 -139,-44 -193,-104l-50 -92 0 -2436c26,-188 126,-256 301,-204l2775 2034 0 -1818 89 -151c64,-46 133,-69 208,-69 134,33 212,117 235,250l0 2344c-34,213 -151,280 -355,200l-2732 -2008 0 1854c-29,72 -79,131 -151,177l-127 23zm3793 0c-33,-9 -66,-21 -97,-34 -30,-13 -59,-36 -88,-70l-50 -92 0 -1357c33,-116 108,-185 223,-208l2861 0 138 77c29,41 50,81 64,117 14,38 15,85 2,141l-62 116c-30,20 -57,37 -80,48 -24,12 -53,22 -89,33l-2537 0 0 701 2856 0c147,24 224,117 232,282 -26,141 -109,223 -251,246l-3122 0zm-20 -2312l-146 -70c-30,-43 -51,-85 -61,-123 -11,-38 -13,-86 -8,-142 54,-111 134,-175 239,-193l3130 0c151,23 231,116 239,277 -8,39 -18,72 -31,100 -13,29 -35,58 -66,89l-123 62 -3173 0z"/>
 </g>
</svg>
