<?xml version="1.0" encoding="UTF-8"?>
<!DOCTYPE svg PUBLIC "-//W3C//DTD SVG 1.1//EN" "http://www.w3.org/Graphics/SVG/1.1/DTD/svg11.dtd">
<!-- Creator: CorelDRAW X8 -->
<svg xmlns="http://www.w3.org/2000/svg" xml:space="preserve" width="297mm" height="420mm" version="1.1" style="shape-rendering:geometricPrecision; text-rendering:geometricPrecision; image-rendering:optimizeQuality; fill-rule:evenodd; clip-rule:evenodd"
viewBox="0 0 29700 42000"
 xmlns:xlink="http://www.w3.org/1999/xlink">
 <defs>
  <style type="text/css">
   <![CDATA[
    .fil3 {fill:none}
    .fil1 {fill:url(#id0)}
    .fil2 {fill:url(#id1)}
    .fil0 {fill:url(#id2)}
    .fil4 {fill:url(#id3)}
   ]]>
  </style>
  <linearGradient id="id0" gradientUnits="userSpaceOnUse" x1="18545.2" y1="12506.6" x2="18989.8" y2="15586.8">
   <stop offset="0" style="stop-opacity:1; stop-color:#A9382D"/>
   <stop offset="0.8" style="stop-opacity:1; stop-color:#D04D19"/>
   <stop offset="1" style="stop-opacity:1; stop-color:#F76204"/>
  </linearGradient>
  <linearGradient id="id1" gradientUnits="userSpaceOnUse" x1="13275.2" y1="12588.5" x2="11781.4" y2="15505">
   <stop offset="0" style="stop-opacity:1; stop-color:#A9392D"/>
   <stop offset="0.65098" style="stop-opacity:1; stop-color:#D44F17"/>
   <stop offset="1" style="stop-opacity:1; stop-color:#FF6600"/>
  </linearGradient>
  <linearGradient id="id2" gradientUnits="userSpaceOnUse" x1="17012.8" y1="6256.59" x2="14282.9" y2="29733.8">
   <stop offset="0" style="stop-opacity:1; stop-color:#A13431"/>
   <stop offset="1" style="stop-opacity:1; stop-color:#FF6600"/>
  </linearGradient>
  <radialGradient id="id3" gradientUnits="userSpaceOnUse" gradientTransform="matrix(-0.124 1.10392 -1.085 -0.126163 37113 2992)" cx="15647.8" cy="17995.2" r="3271.17" fx="15647.8" fy="17995.2">
   <stop offset="0" style="stop-opacity:1; stop-color:#FF6600"/>
   <stop offset="0.419608" style="stop-opacity:1; stop-color:#D04D19"/>
   <stop offset="1" style="stop-opacity:1; stop-color:#A13431"/>
  </radialGradient>
 </defs>
 <g id="Camada_x0020_1">
  <metadata id="CorelCorpID_0Corel-Layer"/>
  <path class="fil0" d="M10691 20622l523 -909 -2910 -5162 2442 -3969 3390 -728 1512 1068 1511 -1068 3391 728 2442 3969 -2910 5162 523 909 -1644 1733 -157 888 -2817 -966 0 -1490 2719 -1555 -253 -444 -2805 553 -2805 -553 -254 444 2720 1555 0 1490 -2817 966 -157 -888 -1644 -1733zm15869 5082l0 -15418c941,-940 941,-2465 0,-3406 -940,-940 -2465,-940 -3406,0l-15013 0c-608,-608 -1495,-846 -2326,-623 -831,223 -1480,872 -1703,1703 -222,831 15,1718 624,2326l0 15418c-609,609 -846,1495 -624,2327 223,831 872,1480 1703,1702 831,223 1718,-14 2326,-623l15013 0c941,941 2466,941 3406,0 941,-940 941,-2465 0,-3406zm-479 -15897l-2448 -2448c676,-676 1772,-676 2448,0 676,676 676,1772 0,2448zm-13510 13884l3077 -869 3077 869 -111 628 -2966 750 -2966 -750 -111 -628zm-4909 -16332l-2448 2448c-437,-437 -608,-1075 -448,-1672 161,-597 627,-1064 1224,-1224 598,-160 1235,11 1672,448zm-2448 18824l533 532 -1010 1010c-105,-561 74,-1138 477,-1542zm1304 1304l453 452 -650 650c-221,220 -537,317 -843,258 52,-273 190,-523 394,-713l646 -647zm-1258 35l646 -647 453 452 -714 714c-180,168 -404,281 -646,327 -47,-307 49,-619 261,-846zm1870 577l532 532c-403,404 -980,583 -1541,478l1009 -1010zm16503 532l532 -532 1010 1010c-561,105 -1138,-74 -1542,-478zm2018 -590l-714 -714 452 -452 647 647c211,227 308,539 261,846 -242,-46 -466,-159 -646,-327zm-102 -1326l532 -532c404,404 583,981 478,1542l-1010 -1010zm-1224 1224l452 -452 647 647c203,190 341,440 394,713 -306,59 -622,-38 -843,-258l-650 -650z"/>
  <polygon class="fil1" points="17711,15594 20716,12500 16819,14043 "/>
  <polygon class="fil2" points="13585,15594 14477,14043 10580,12500 "/>
  <path class="fil3" d="M5214 9807l2448 -2448c-437,-437 -1074,-608 -1672,-448 -597,160 -1063,627 -1224,1224 -160,597 11,1235 448,1672z"/>
  <path class="fil3" d="M26081 9807c676,-676 676,-1772 0,-2448 -676,-676 -1772,-676 -2448,0l2448 2448z"/>
  <path class="fil3" d="M20082 19713l2910 -5162 -2442 -3969 -3391 -728 -1511 1068 -1512 -1068 -3390 728 -2442 3969 2910 5162 -523 909 1644 1733 157 888 2817 -966 0 -1490 -2720 -1555 254 -444 2805 553 2805 -553 253 444 -2719 1555 0 1490 2817 966 157 -888 1644 -1733 -523 -909zm-2371 -4119l-892 -1551 3897 -1543 -3005 3094zm-3234 -1551l-892 1551 -3005 -3094 3897 1543z"/>
  <polygon class="fil3" points="18725,23691 15648,22822 12571,23691 12682,24319 15648,25069 18614,24319 "/>
  <path class="fil3" d="M26559 27725c105,-561 -74,-1138 -478,-1542l-532 532 1010 1010z"/>
  <path class="fil3" d="M26297 28368c47,-307 -50,-619 -261,-846l-647 -647 -452 452 714 714c180,168 404,281 646,327z"/>
  <path class="fil3" d="M25424 28134l-647 -647 -452 452 650 650c221,220 537,317 843,258 -53,-273 -191,-523 -394,-713z"/>
  <path class="fil3" d="M25175 29109l-1010 -1010 -532 532c404,404 981,583 1542,478z"/>
  <path class="fil3" d="M5747 26715l-533 -532c-403,404 -582,981 -477,1542l1010 -1010z"/>
  <path class="fil3" d="M5645 28041l714 -714 -453 -452 -646 647c-212,227 -308,539 -261,846 242,-46 466,-159 646,-327z"/>
  <path class="fil3" d="M6321 28589l650 -650 -453 -452 -646 647c-204,190 -342,440 -394,713 306,59 622,-38 843,-258z"/>
  <path class="fil3" d="M7662 28631l-532 -532 -1009 1010c561,105 1138,-74 1541,-478z"/>
  <polyline class="fil3" points="15648,25069 12682,24319 12571,23691 "/>
  <polyline class="fil3" points="12492,23243 12335,22355 10691,20622 11214,19713 "/>
  <polyline class="fil3" points="13585,15594 14477,14043 10580,12500 "/>
  <polyline class="fil3" points="10916,19184 8304,14551 10746,10582 14136,9854 15648,10922 "/>
  <line class="fil3" x1="12571" y1="23691" x2="15648" y2= "22822" />
  <polyline class="fil3" points="12492,23243 15309,22277 15309,20787 12589,19232 12843,18788 15648,19341 "/>
  <line class="fil3" x1="8304" y1="14551" x2="11214" y2= "19713" />
  <line class="fil3" x1="13585" y1="15594" x2="10580" y2= "12500" />
  <polyline class="fil3" points="15648,25069 18614,24319 18725,23691 "/>
  <polyline class="fil3" points="18804,23243 18961,22355 20605,20622 20082,19713 "/>
  <polyline class="fil3" points="17711,15594 16819,14043 20716,12500 "/>
  <polyline class="fil3" points="20380,19184 22992,14551 20550,10582 17159,9854 15648,10922 "/>
  <line class="fil3" x1="18725" y1="23691" x2="15648" y2= "22822" />
  <polyline class="fil3" points="18804,23243 15987,22277 15987,20787 18706,19232 18453,18788 15648,19341 "/>
  <line class="fil3" x1="22992" y1="14551" x2="20082" y2= "19713" />
  <line class="fil3" x1="17711" y1="15594" x2="20716" y2= "12500" />
  <line class="fil3" x1="8141" y1="6880" x2="23154" y2= "6880" />
  <line class="fil3" x1="4736" y1="10286" x2="4736" y2= "25704" />
  <line class="fil3" x1="26560" y1="10286" x2="26560" y2= "25704" />
  <line class="fil3" x1="23154" y1="29110" x2="8141" y2= "29110" />
  <path class="fil3" d="M26560 10286c941,-940 941,-2465 0,-3406 -940,-940 -2465,-940 -3406,0"/>
  <path class="fil3" d="M26081 9807c676,-676 676,-1772 0,-2448 -676,-676 -1772,-676 -2448,0"/>
  <line class="fil3" x1="23633" y1="7359" x2="26081" y2= "9807" />
  <path class="fil3" d="M8141 6880c-608,-608 -1495,-846 -2326,-623 -831,223 -1480,872 -1703,1703 -222,831 15,1718 624,2326"/>
  <path class="fil3" d="M7662 7359c-437,-437 -1074,-608 -1672,-448 -597,160 -1063,627 -1224,1224 -160,597 11,1235 448,1672"/>
  <line class="fil3" x1="7662" y1="7359" x2="5214" y2= "9807" />
  <path class="fil3" d="M23154 29110c941,941 2466,941 3406,0 941,-940 941,-2465 0,-3406"/>
  <path class="fil3" d="M4736 25704c-609,609 -846,1495 -624,2327 223,831 872,1480 1703,1702 831,223 1718,-14 2326,-623"/>
  <path class="fil3" d="M5214 26183c-403,404 -582,981 -477,1542"/>
  <path class="fil3" d="M6121 29109c561,105 1138,-74 1541,-478"/>
  <line class="fil3" x1="7662" y1="28631" x2="7130" y2= "28099" />
  <line class="fil3" x1="6971" y1="27939" x2="6518" y2= "27487" />
  <line class="fil3" x1="6359" y1="27327" x2="5906" y2= "26875" />
  <line class="fil3" x1="5747" y1="26715" x2="5214" y2= "26183" />
  <line class="fil3" x1="5906" y1="26875" x2="5260" y2= "27522" />
  <line class="fil3" x1="5747" y1="26715" x2="4737" y2= "27725" />
  <line class="fil3" x1="6518" y1="27487" x2="5872" y2= "28134" />
  <line class="fil3" x1="6359" y1="27327" x2="5645" y2= "28041" />
  <line class="fil3" x1="7130" y1="28099" x2="6121" y2= "29109" />
  <line class="fil3" x1="6971" y1="27939" x2="6321" y2= "28589" />
  <path class="fil3" d="M5260 27522c-212,227 -308,539 -261,846"/>
  <path class="fil3" d="M4999 28368c242,-46 466,-159 646,-327"/>
  <path class="fil3" d="M5872 28134c-204,190 -342,440 -394,713"/>
  <path class="fil3" d="M5478 28847c306,59 622,-38 843,-258"/>
  <path class="fil3" d="M26559 27725c105,-561 -74,-1138 -478,-1542"/>
  <path class="fil3" d="M23633 28631c404,404 981,583 1542,478"/>
  <line class="fil3" x1="23633" y1="28631" x2="24165" y2= "28099" />
  <line class="fil3" x1="24325" y1="27939" x2="24777" y2= "27487" />
  <line class="fil3" x1="24937" y1="27327" x2="25389" y2= "26875" />
  <line class="fil3" x1="25549" y1="26715" x2="26081" y2= "26183" />
  <line class="fil3" x1="25389" y1="26875" x2="26036" y2= "27522" />
  <line class="fil3" x1="25549" y1="26715" x2="26559" y2= "27725" />
  <line class="fil3" x1="24777" y1="27487" x2="25424" y2= "28134" />
  <line class="fil3" x1="24937" y1="27327" x2="25651" y2= "28041" />
  <line class="fil3" x1="24165" y1="28099" x2="25175" y2= "29109" />
  <line class="fil3" x1="24325" y1="27939" x2="24975" y2= "28589" />
  <path class="fil3" d="M26297 28368c47,-307 -50,-619 -261,-846"/>
  <path class="fil3" d="M25651 28041c180,168 404,281 646,327"/>
  <path class="fil3" d="M25818 28847c-53,-273 -191,-523 -394,-713"/>
  <path class="fil3" d="M24975 28589c221,220 537,317 843,258"/>
  <path class="fil4" d="M10691 20622l523 -909 -2910 -5162 2442 -3969 3390 -728 1512 1068 1511 -1068 3391 728 2442 3969 -2910 5162 523 909 -1644 1733 -157 888 -2817 -966 0 -1490 2719 -1555 -253 -444 -2805 553 -2805 -553 -254 444 2720 1555 0 1490 -2817 966 -157 -888 -1644 -1733zm15869 5082l0 -15418c941,-940 941,-2465 0,-3406 -940,-940 -2465,-940 -3406,0l-15013 0c-608,-608 -1495,-846 -2326,-623 -831,223 -1480,872 -1703,1703 -222,831 15,1718 624,2326l0 15418c-609,609 -846,1495 -624,2327 223,831 872,1480 1703,1702 831,223 1718,-14 2326,-623l15013 0c941,941 2466,941 3406,0 941,-940 941,-2465 0,-3406zm-479 -15897l-2448 -2448c676,-676 1772,-676 2448,0 676,676 676,1772 0,2448zm-13510 13884l3077 -869 3077 869 -111 628 -2966 750 -2966 -750 -111 -628zm-4909 -16332l-2448 2448c-437,-437 -608,-1075 -448,-1672 161,-597 627,-1064 1224,-1224 598,-160 1235,11 1672,448zm-2448 18824l533 532 -1010 1010c-105,-561 74,-1138 477,-1542zm1304 1304l453 452 -650 650c-221,220 -537,317 -843,258 52,-273 190,-523 394,-713l646 -647zm-1258 35l646 -647 453 452 -714 714c-180,168 -404,281 -646,327 -47,-307 49,-619 261,-846zm1870 577l532 532c-403,404 -980,583 -1541,478l1009 -1010zm16503 532l532 -532 1010 1010c-561,105 -1138,-74 -1542,-478zm2018 -590l-714 -714 452 -452 647 647c211,227 308,539 261,846 -242,-46 -466,-159 -646,-327zm-102 -1326l532 -532c404,404 583,981 478,1542l-1010 -1010zm-1224 1224l452 -452 647 647c203,190 341,440 394,713 -306,59 -622,-38 -843,-258l-650 -650z"/>
 </g>
</svg>
