<?xml version="1.0" encoding="UTF-8"?>
<!DOCTYPE svg PUBLIC "-//W3C//DTD SVG 1.1//EN" "http://www.w3.org/Graphics/SVG/1.1/DTD/svg11.dtd">
<!-- Creator: CorelDRAW X8 -->
<svg xmlns="http://www.w3.org/2000/svg" xml:space="preserve" width="420mm" height="84.6666mm" version="1.1" style="shape-rendering:geometricPrecision; text-rendering:geometricPrecision; image-rendering:optimizeQuality; fill-rule:evenodd; clip-rule:evenodd"
viewBox="0 0 42000 8467"
 xmlns:xlink="http://www.w3.org/1999/xlink">
 <defs>
  <style type="text/css">
   <![CDATA[
    .str0 {stroke:black;stroke-width:0.01}
    .str1 {stroke:black;stroke-width:0.01;stroke-linejoin:bevel}
    .fil3 {fill:none}
    .fil2 {fill:black}
    .fil0 {fill:black;fill-rule:nonzero}
    .fil1 {fill:url(#id0)}
   ]]>
  </style>
  <linearGradient id="id0" gradientUnits="userSpaceOnUse" x1="5464.15" y1="1611.95" x2="4789.32" y2="7415.56">
   <stop offset="0" style="stop-opacity:1; stop-color:#A13431"/>
   <stop offset="1" style="stop-opacity:1; stop-color:#FF6600"/>
  </linearGradient>
 </defs>
 <g id="_0">
  <metadata id="CorelCorpID_0Corel-Layer"/>
  <path class="fil0" d="M9287 3732c0,-57 17,-104 50,-140 33,-36 81,-53 144,-53l219 0c132,0 198,78 198,237l0 917c0,368 23,582 69,646 86,215 240,383 464,504 109,66 321,99 636,99l1527 0c54,0 100,16 137,49 38,33 56,81 56,143l0 222c0,54 -16,100 -49,137 -33,37 -81,55 -144,55l-1845 0c-447,0 -825,-179 -1135,-537 -218,-273 -327,-581 -327,-925l0 -1354zm3707 0c0,-57 16,-104 49,-140 33,-36 81,-53 144,-53l219 0c55,0 100,16 136,49 36,33 53,81 53,144l0 2623c0,54 -15,100 -47,137 -31,38 -79,56 -142,56l-219 0c-57,0 -104,-16 -140,-49 -36,-33 -53,-81 -53,-144l0 -2623zm3111 -193c496,0 903,216 1222,649 161,255 241,521 241,799l0 112c0,465 -202,856 -606,1174 -264,183 -549,275 -856,275l-842 0c-448,0 -826,-179 -1135,-537 -218,-273 -327,-581 -327,-925l0 -86c0,-447 179,-825 538,-1135 272,-218 581,-326 925,-326l840 0zm-1684 1506c0,256 120,489 361,698 158,133 394,199 709,199l228 0c367,0 586,-27 658,-82 198,-84 354,-228 469,-435 63,-129 94,-259 94,-388 0,-265 -127,-502 -382,-711 -152,-121 -386,-181 -701,-181l-215 0c-358,0 -573,26 -645,77 -92,26 -206,107 -344,242 -155,195 -232,389 -232,581zm3349 -1313c0,-57 17,-104 50,-140 33,-36 81,-53 144,-53l275 0c126,0 239,51 339,154 577,548 1015,963 1316,1247 301,284 469,442 503,473 57,34 105,53 142,56 86,0 129,-112 129,-335l0 -1402c0,-54 16,-100 47,-138 32,-37 79,-55 142,-55l219 0c58,0 104,16 140,49 36,33 54,81 54,144l0 2623c0,54 -17,100 -49,137 -33,38 -81,56 -145,56l-262 0c-146,0 -281,-73 -404,-219l-1767 -1668c-57,-32 -102,-48 -133,-48 -86,0 -129,111 -129,331l0 1411c0,54 -17,100 -50,137 -33,38 -81,56 -144,56l-223 0c-58,0 -104,-16 -140,-49 -36,-33 -54,-81 -54,-144l0 -2623zm3706 0c0,-57 17,-104 50,-140 33,-36 81,-53 144,-53l3113 0c57,0 103,16 139,49 36,33 54,81 54,144l0 219c0,55 -16,101 -49,138 -33,37 -81,56 -144,56l-3113 0c-55,0 -101,-17 -138,-50 -37,-33 -56,-81 -56,-144l0 -219zm0 1036c0,-57 17,-103 50,-137 33,-35 81,-52 144,-52l3113 0c54,0 100,16 137,47 37,32 56,79 56,142l0 224c0,54 -16,100 -49,137 -33,38 -81,56 -144,56l-3113 0c-58,0 -104,-16 -140,-49 -36,-33 -54,-81 -54,-144l0 -224zm0 1366c0,-57 17,-103 50,-139 33,-35 81,-53 144,-53l3113 0c54,0 100,16 137,49 37,33 56,81 56,143l0 222c0,54 -16,100 -49,137 -33,37 -81,55 -144,55l-3113 0c-58,0 -104,-16 -140,-49 -36,-33 -54,-81 -54,-143l0 -222zm3706 -2402c0,-57 17,-104 50,-140 33,-36 81,-53 144,-53l275 0c126,0 239,51 340,154 576,548 1014,963 1315,1247 301,284 469,442 503,473 58,34 105,53 142,56 86,0 129,-112 129,-335l0 -1402c0,-54 16,-100 48,-138 31,-37 78,-55 141,-55l220 0c57,0 104,16 139,49 36,33 54,81 54,144l0 2623c0,54 -16,100 -49,137 -33,38 -81,56 -144,56l-263 0c-146,0 -280,-73 -404,-219l-1767 -1668c-57,-32 -102,-48 -133,-48 -86,0 -129,111 -129,331l0 1411c0,54 -17,100 -49,137 -33,38 -81,56 -145,56l-223 0c-57,0 -104,-16 -140,-49 -36,-33 -54,-81 -54,-144l0 -2623zm7206 2624c0,54 -16,100 -49,137 -33,37 -81,55 -144,55l-1845 0c-447,0 -825,-179 -1135,-537 -218,-273 -326,-581 -326,-925l0 -86c0,-447 179,-825 537,-1135 272,-218 580,-326 924,-326l1845 0c57,0 104,16 140,49 35,33 53,81 53,144l0 219c0,55 -16,101 -49,138 -33,37 -81,56 -144,56l-1466 0c-359,0 -574,26 -645,77 -215,90 -380,246 -495,470 -54,121 -81,239 -81,353 0,256 120,489 361,698 157,133 394,199 709,199l821 0c204,0 319,-37 344,-112 29,-46 43,-136 43,-271l0 -787c0,-54 16,-99 48,-135 31,-36 78,-54 142,-54l219 0c54,0 100,16 137,48 38,31 56,78 56,141l0 1584zm207 -2624c0,-57 16,-104 49,-140 33,-36 81,-53 144,-53l219 0c55,0 100,16 136,49 36,33 54,81 54,144l0 2623c0,54 -16,100 -48,137 -31,38 -79,56 -142,56l-219 0c-57,0 -104,-16 -140,-49 -35,-33 -53,-81 -53,-144l0 -2623zm808 0c0,-57 16,-104 49,-140 33,-36 81,-53 144,-53l276 0c126,0 239,51 339,154 576,548 1015,963 1316,1247 301,284 469,442 503,473 57,34 105,53 142,56 86,0 129,-112 129,-335l0 -1402c0,-54 16,-100 47,-138 32,-37 79,-55 142,-55l219 0c58,0 104,16 140,49 36,33 54,81 54,144l0 2623c0,54 -17,100 -50,137 -33,38 -81,56 -144,56l-262 0c-146,0 -281,-73 -404,-219l-1767 -1668c-58,-32 -102,-48 -134,-48 -86,0 -129,111 -129,331l0 1411c0,54 -16,100 -49,137 -33,38 -81,56 -144,56l-224 0c-57,0 -103,-16 -139,-49 -36,-33 -54,-81 -54,-144l0 -2623zm3706 0c0,-57 17,-104 50,-140 32,-36 80,-53 144,-53l3112 0c58,0 104,16 140,49 36,33 54,81 54,144l0 219c0,55 -17,101 -50,138 -33,37 -81,56 -144,56l-3112 0c-55,0 -101,-17 -138,-50 -37,-33 -56,-81 -56,-144l0 -219zm0 1036c0,-57 17,-103 50,-137 32,-35 80,-52 144,-52l3112 0c55,0 101,16 138,47 37,32 56,79 56,142l0 224c0,54 -17,100 -50,137 -33,38 -81,56 -144,56l-3112 0c-58,0 -104,-16 -140,-49 -36,-33 -54,-81 -54,-144l0 -224zm0 1366c0,-57 17,-103 50,-139 32,-35 80,-53 144,-53l3112 0c55,0 101,16 138,49 37,33 56,81 56,143l0 222c0,54 -17,100 -50,137 -33,37 -81,55 -144,55l-3112 0c-58,0 -104,-16 -140,-49 -36,-33 -54,-81 -54,-143l0 -222z"/>
  <path class="fil1 str0" d="M3901 5163l130 -225 -720 -1276 604 -981 838 -180 374 264 373 -264 839 180 603 981 -719 1276 129 225 -406 429 -39 219 -697 -239 0 -368 673 -385 -63 -109 -693 136 -694 -136 -62 109 672 385 0 368 -696 239 -39 -219 -407 -429zm3923 1256l0 -3811c233,-232 233,-609 0,-842 -232,-232 -609,-232 -842,0l-3711 0c-150,-150 -369,-209 -575,-154 -205,55 -366,216 -421,421 -55,205 4,425 154,575l0 3811c-150,151 -209,370 -154,576 55,205 216,365 421,420 206,56 425,-3 575,-154l3711 0c233,233 610,233 842,0 233,-232 233,-609 0,-842zm-118 -3929l-605 -605c167,-168 438,-168 605,0 167,167 167,438 0,605zm-3340 3432l761 -215 760 215 -27 155 -733 185 -733 -185 -28 -155zm-1213 -4037l-605 605c-109,-108 -151,-266 -111,-414 39,-147 155,-263 302,-302 148,-40 306,2 414,111zm-605 4653l131 131 -249 250c-26,-139 18,-281 118,-381zm322 322l112 112 -161 161c-55,54 -133,78 -208,63 13,-67 47,-129 97,-176l160 -160zm-311 9l160 -160 111 112 -176 176c-45,42 -100,70 -160,81 -11,-76 13,-153 65,-209zm462 142l132 132c-100,100 -243,144 -381,118l249 -250zm4080 132l131 -132 250 250c-139,26 -281,-18 -381,-118zm498 -146l-176 -176 112 -112 160 160c52,56 76,133 64,209 -60,-11 -115,-39 -160,-81zm-25 -328l132 -131c100,100 144,242 118,381l-250 -250zm-302 303l112 -112 159 160c51,47 85,109 98,176 -76,15 -154,-9 -209,-63l-160 -161z"/>
  <polygon class="fil2 str0" points="5637,3920 6380,3155 5416,3537 "/>
  <polygon class="fil2 str0" points="4617,3920 4837,3537 3874,3155 "/>
  <path class="fil3 str0" d="M2548 2490l605 -605c-108,-109 -266,-151 -414,-111 -147,39 -263,155 -302,302 -40,148 2,306 111,414z"/>
  <path class="fil3 str0" d="M7706 2490c167,-167 167,-438 0,-605 -167,-168 -438,-168 -605,0l605 605z"/>
  <path class="fil3 str0" d="M6223 4938l719 -1276 -603 -981 -839 -180 -373 264 -374 -264 -838 180 -604 981 720 1276 -130 225 407 429 39 219 696 -239 0 -368 -672 -385 62 -109 694 136 693 -136 63 109 -673 385 0 368 697 239 39 -219 406 -429 -129 -225zm-586 -1018l-221 -383 964 -382 -743 765zm-800 -383l-220 383 -743 -765 963 382z"/>
  <polygon class="fil3 str0" points="5887,5922 5127,5707 4366,5922 4394,6077 5127,6262 5860,6077 "/>
  <path class="fil3 str0" d="M7824 6919c26,-139 -18,-281 -118,-381l-132 131 250 250z"/>
  <path class="fil3 str0" d="M7759 7078c12,-76 -12,-153 -64,-209l-160 -160 -112 112 176 176c45,42 100,70 160,81z"/>
  <path class="fil3 str0" d="M7543 7020l-159 -160 -112 112 160 161c55,54 133,78 209,63 -13,-67 -47,-129 -98,-176z"/>
  <path class="fil3 str0" d="M7482 7261l-250 -250 -131 132c100,100 242,144 381,118z"/>
  <path class="fil3 str0" d="M2679 6669l-131 -131c-100,100 -144,242 -118,381l249 -250z"/>
  <path class="fil3 str0" d="M2654 6997l176 -176 -111 -112 -160 160c-52,56 -76,133 -65,209 60,-11 115,-39 160,-81z"/>
  <path class="fil3 str0" d="M2821 7133l161 -161 -112 -112 -160 160c-50,47 -84,109 -97,176 75,15 153,-9 208,-63z"/>
  <path class="fil3 str0" d="M3153 7143l-132 -132 -249 250c138,26 281,-18 381,-118z"/>
  <polyline class="fil3 str1" points="5127,6262 4394,6077 4366,5922 "/>
  <polyline class="fil3 str1" points="4347,5811 4308,5592 3901,5163 4031,4938 "/>
  <polyline class="fil3 str1" points="4617,3920 4837,3537 3874,3155 "/>
  <polyline class="fil3 str1" points="3957,4808 3311,3662 3915,2681 4753,2501 5127,2765 "/>
  <line class="fil3 str1" x1="4366" y1="5922" x2="5127" y2= "5707" />
  <polyline class="fil3 str1" points="4347,5811 5043,5572 5043,5204 4371,4819 4433,4710 5127,4846 "/>
  <line class="fil3 str1" x1="3311" y1="3662" x2="4031" y2= "4938" />
  <line class="fil3 str1" x1="4617" y1="3920" x2="3874" y2= "3155" />
  <polyline class="fil3 str1" points="5127,6262 5860,6077 5887,5922 "/>
  <polyline class="fil3 str1" points="5907,5811 5946,5592 6352,5163 6223,4938 "/>
  <polyline class="fil3 str1" points="5637,3920 5416,3537 6380,3155 "/>
  <polyline class="fil3 str1" points="6296,4808 6942,3662 6339,2681 5500,2501 5127,2765 "/>
  <line class="fil3 str1" x1="5887" y1="5922" x2="5127" y2= "5707" />
  <polyline class="fil3 str1" points="5907,5811 5210,5572 5210,5204 5883,4819 5820,4710 5127,4846 "/>
  <line class="fil3 str1" x1="6942" y1="3662" x2="6223" y2= "4938" />
  <line class="fil3 str1" x1="5637" y1="3920" x2="6380" y2= "3155" />
  <line class="fil3 str1" x1="3271" y1="1766" x2="6982" y2= "1766" />
  <line class="fil3 str1" x1="2429" y1="2608" x2="2429" y2= "6419" />
  <line class="fil3 str1" x1="7824" y1="2608" x2="7824" y2= "6419" />
  <line class="fil3 str1" x1="6982" y1="7261" x2="3271" y2= "7261" />
  <path class="fil3 str1" d="M7824 2608c233,-232 233,-609 0,-842 -232,-232 -609,-232 -842,0"/>
  <path class="fil3 str1" d="M7706 2490c167,-167 167,-438 0,-605 -167,-168 -438,-168 -605,0"/>
  <line class="fil3 str1" x1="7101" y1="1885" x2="7706" y2= "2490" />
  <path class="fil3 str1" d="M3271 1766c-150,-150 -369,-209 -575,-154 -205,55 -366,216 -421,421 -55,205 4,425 154,575"/>
  <path class="fil3 str1" d="M3153 1885c-108,-109 -266,-151 -414,-111 -147,39 -263,155 -302,302 -40,148 2,306 111,414"/>
  <line class="fil3 str1" x1="3153" y1="1885" x2="2548" y2= "2490" />
  <path class="fil3 str1" d="M6982 7261c233,233 610,233 842,0 233,-232 233,-609 0,-842"/>
  <path class="fil3 str1" d="M2429 6419c-150,151 -209,370 -154,576 55,205 216,365 421,420 206,56 425,-3 575,-154"/>
  <path class="fil3 str1" d="M2548 6538c-100,100 -144,242 -118,381"/>
  <path class="fil3 str1" d="M2772 7261c138,26 281,-18 381,-118"/>
  <line class="fil3 str1" x1="3153" y1="7143" x2="3021" y2= "7011" />
  <line class="fil3 str1" x1="2982" y1="6972" x2="2870" y2= "6860" />
  <line class="fil3 str1" x1="2830" y1="6821" x2="2719" y2= "6709" />
  <line class="fil3 str1" x1="2679" y1="6669" x2="2548" y2= "6538" />
  <line class="fil3 str1" x1="2719" y1="6709" x2="2559" y2= "6869" />
  <line class="fil3 str1" x1="2679" y1="6669" x2="2430" y2= "6919" />
  <line class="fil3 str1" x1="2870" y1="6860" x2="2710" y2= "7020" />
  <line class="fil3 str1" x1="2830" y1="6821" x2="2654" y2= "6997" />
  <line class="fil3 str1" x1="3021" y1="7011" x2="2772" y2= "7261" />
  <line class="fil3 str1" x1="2982" y1="6972" x2="2821" y2= "7133" />
  <path class="fil3 str1" d="M2559 6869c-52,56 -76,133 -65,209"/>
  <path class="fil3 str1" d="M2494 7078c60,-11 115,-39 160,-81"/>
  <path class="fil3 str1" d="M2710 7020c-50,47 -84,109 -97,176"/>
  <path class="fil3 str1" d="M2613 7196c75,15 153,-9 208,-63"/>
  <path class="fil3 str1" d="M7824 6919c26,-139 -18,-281 -118,-381"/>
  <path class="fil3 str1" d="M7101 7143c100,100 242,144 381,118"/>
  <line class="fil3 str1" x1="7101" y1="7143" x2="7232" y2= "7011" />
  <line class="fil3 str1" x1="7272" y1="6972" x2="7384" y2= "6860" />
  <line class="fil3 str1" x1="7423" y1="6821" x2="7535" y2= "6709" />
  <line class="fil3 str1" x1="7574" y1="6669" x2="7706" y2= "6538" />
  <line class="fil3 str1" x1="7535" y1="6709" x2="7695" y2= "6869" />
  <line class="fil3 str1" x1="7574" y1="6669" x2="7824" y2= "6919" />
  <line class="fil3 str1" x1="7384" y1="6860" x2="7543" y2= "7020" />
  <line class="fil3 str1" x1="7423" y1="6821" x2="7599" y2= "6997" />
  <line class="fil3 str1" x1="7232" y1="7011" x2="7482" y2= "7261" />
  <line class="fil3 str1" x1="7272" y1="6972" x2="7432" y2= "7133" />
  <path class="fil3 str1" d="M7759 7078c12,-76 -12,-153 -64,-209"/>
  <path class="fil3 str1" d="M7599 6997c45,42 100,70 160,81"/>
  <path class="fil3 str1" d="M7641 7196c-13,-67 -47,-129 -98,-176"/>
  <path class="fil3 str1" d="M7432 7133c55,54 133,78 209,63"/>
  <path class="fil2 str0" d="M3901 5163l130 -225 -720 -1276 604 -981 838 -180 374 264 373 -264 839 180 603 981 -719 1276 129 225 -406 429 -39 219 -697 -239 0 -368 673 -385 -63 -109 -693 136 -694 -136 -62 109 672 385 0 368 -696 239 -39 -219 -407 -429zm3923 1256l0 -3811c233,-232 233,-609 0,-842 -232,-232 -609,-232 -842,0l-3711 0c-150,-150 -369,-209 -575,-154 -205,55 -366,216 -421,421 -55,205 4,425 154,575l0 3811c-150,151 -209,370 -154,576 55,205 216,365 421,420 206,56 425,-3 575,-154l3711 0c233,233 610,233 842,0 233,-232 233,-609 0,-842zm-118 -3929l-605 -605c167,-168 438,-168 605,0 167,167 167,438 0,605zm-3340 3432l761 -215 760 215 -27 155 -733 185 -733 -185 -28 -155zm-1213 -4037l-605 605c-109,-108 -151,-266 -111,-414 39,-147 155,-263 302,-302 148,-40 306,2 414,111zm-605 4653l131 131 -249 250c-26,-139 18,-281 118,-381zm322 322l112 112 -161 161c-55,54 -133,78 -208,63 13,-67 47,-129 97,-176l160 -160zm-311 9l160 -160 111 112 -176 176c-45,42 -100,70 -160,81 -11,-76 13,-153 65,-209zm462 142l132 132c-100,100 -243,144 -381,118l249 -250zm4080 132l131 -132 250 250c-139,26 -281,-18 -381,-118zm498 -146l-176 -176 112 -112 160 160c52,56 76,133 64,209 -60,-11 -115,-39 -160,-81zm-25 -328l132 -131c100,100 144,242 118,381l-250 -250zm-302 303l112 -112 159 160c51,47 85,109 98,176 -76,15 -154,-9 -209,-63l-160 -161z"/>
 </g>
</svg>
