<?xml version="1.0" encoding="UTF-8"?>
<!DOCTYPE svg PUBLIC "-//W3C//DTD SVG 1.1//EN" "http://www.w3.org/Graphics/SVG/1.1/DTD/svg11.dtd">
<!-- Creator: CorelDRAW X8 -->
<svg xmlns="http://www.w3.org/2000/svg" xml:space="preserve" width="420mm" height="84.6666mm" version="1.1" style="shape-rendering:geometricPrecision; text-rendering:geometricPrecision; image-rendering:optimizeQuality; fill-rule:evenodd; clip-rule:evenodd"
viewBox="0 0 42000 8467"
 xmlns:xlink="http://www.w3.org/1999/xlink">
 <defs>
  <style type="text/css">
   <![CDATA[
    .str0 {stroke:white;stroke-width:0.01}
    .str1 {stroke:white;stroke-width:0.01;stroke-linejoin:bevel}
    .fil2 {fill:none}
    .fil1 {fill:white}
    .fil3 {fill:white;fill-rule:nonzero}
    .fil0 {fill:url(#id0)}
   ]]>
  </style>
  <linearGradient id="id0" gradientUnits="userSpaceOnUse" x1="5464.15" y1="1611.95" x2="4789.32" y2="7415.56">
   <stop offset="0" style="stop-opacity:1; stop-color:#A13431"/>
   <stop offset="1" style="stop-opacity:1; stop-color:#FF6600"/>
  </linearGradient>
 </defs>
 <g id="_0">
  <metadata id="CorelCorpID_0Corel-Layer"/>
  <path class="fil0 str0" d="M3901 5163l130 -225 -720 -1276 604 -981 838 -180 374 264 373 -264 839 180 603 981 -719 1276 129 225 -406 429 -39 219 -697 -239 0 -368 673 -385 -63 -109 -693 136 -694 -136 -62 109 672 385 0 368 -696 239 -39 -219 -407 -429zm3923 1256l0 -3811c233,-232 233,-609 0,-842 -232,-232 -609,-232 -842,0l-3711 0c-150,-150 -369,-209 -575,-154 -205,55 -366,216 -421,421 -55,205 4,425 154,575l0 3811c-150,151 -209,370 -154,576 55,205 216,365 421,420 206,56 425,-3 575,-154l3711 0c233,233 610,233 842,0 233,-232 233,-609 0,-842zm-118 -3929l-605 -605c167,-168 438,-168 605,0 167,167 167,438 0,605zm-3340 3432l761 -215 760 215 -27 155 -733 185 -733 -185 -28 -155zm-1213 -4037l-605 605c-109,-108 -151,-266 -111,-414 39,-147 155,-263 302,-302 148,-40 306,2 414,111zm-605 4653l131 131 -249 250c-26,-139 18,-281 118,-381zm322 322l112 112 -161 161c-55,54 -133,78 -208,63 13,-67 47,-129 97,-176l160 -160zm-311 9l160 -160 111 112 -176 176c-45,42 -100,70 -160,81 -11,-76 13,-153 65,-209zm462 142l132 132c-100,100 -243,144 -381,118l249 -250zm4080 132l131 -132 250 250c-139,26 -281,-18 -381,-118zm498 -146l-176 -176 112 -112 160 160c52,56 76,133 64,209 -60,-11 -115,-39 -160,-81zm-25 -328l132 -131c100,100 144,242 118,381l-250 -250zm-302 303l112 -112 159 160c51,47 85,109 98,176 -76,15 -154,-9 -209,-63l-160 -161z"/>
  <polygon class="fil1 str0" points="5637,3920 6380,3155 5416,3537 "/>
  <polygon class="fil1 str0" points="4617,3920 4837,3537 3874,3155 "/>
  <path class="fil2 str0" d="M2548 2490l605 -605c-108,-109 -266,-151 -414,-111 -147,39 -263,155 -302,302 -40,148 2,306 111,414z"/>
  <path class="fil2 str0" d="M7706 2490c167,-167 167,-438 0,-605 -167,-168 -438,-168 -605,0l605 605z"/>
  <path class="fil2 str0" d="M6223 4938l719 -1276 -603 -981 -839 -180 -373 264 -374 -264 -838 180 -604 981 720 1276 -130 225 407 429 39 219 696 -239 0 -368 -672 -385 62 -109 694 136 693 -136 63 109 -673 385 0 368 697 239 39 -219 406 -429 -129 -225zm-586 -1018l-221 -383 964 -382 -743 765zm-800 -383l-220 383 -743 -765 963 382z"/>
  <polygon class="fil2 str0" points="5887,5922 5127,5707 4366,5922 4394,6077 5127,6262 5860,6077 "/>
  <path class="fil2 str0" d="M7824 6919c26,-139 -18,-281 -118,-381l-132 131 250 250z"/>
  <path class="fil2 str0" d="M7759 7078c12,-76 -12,-153 -64,-209l-160 -160 -112 112 176 176c45,42 100,70 160,81z"/>
  <path class="fil2 str0" d="M7543 7020l-159 -160 -112 112 160 161c55,54 133,78 209,63 -13,-67 -47,-129 -98,-176z"/>
  <path class="fil2 str0" d="M7482 7261l-250 -250 -131 132c100,100 242,144 381,118z"/>
  <path class="fil2 str0" d="M2679 6669l-131 -131c-100,100 -144,242 -118,381l249 -250z"/>
  <path class="fil2 str0" d="M2654 6997l176 -176 -111 -112 -160 160c-52,56 -76,133 -65,209 60,-11 115,-39 160,-81z"/>
  <path class="fil2 str0" d="M2821 7133l161 -161 -112 -112 -160 160c-50,47 -84,109 -97,176 75,15 153,-9 208,-63z"/>
  <path class="fil2 str0" d="M3153 7143l-132 -132 -249 250c138,26 281,-18 381,-118z"/>
  <polyline class="fil2 str1" points="5127,6262 4394,6077 4366,5922 "/>
  <polyline class="fil2 str1" points="4347,5811 4308,5592 3901,5163 4031,4938 "/>
  <polyline class="fil2 str1" points="4617,3920 4837,3537 3874,3155 "/>
  <polyline class="fil2 str1" points="3957,4808 3311,3662 3915,2681 4753,2501 5127,2765 "/>
  <line class="fil2 str1" x1="4366" y1="5922" x2="5127" y2= "5707" />
  <polyline class="fil2 str1" points="4347,5811 5043,5572 5043,5204 4371,4819 4433,4710 5127,4846 "/>
  <line class="fil2 str1" x1="3311" y1="3662" x2="4031" y2= "4938" />
  <line class="fil2 str1" x1="4617" y1="3920" x2="3874" y2= "3155" />
  <polyline class="fil2 str1" points="5127,6262 5860,6077 5887,5922 "/>
  <polyline class="fil2 str1" points="5907,5811 5946,5592 6352,5163 6223,4938 "/>
  <polyline class="fil2 str1" points="5637,3920 5416,3537 6380,3155 "/>
  <polyline class="fil2 str1" points="6296,4808 6942,3662 6339,2681 5500,2501 5127,2765 "/>
  <line class="fil2 str1" x1="5887" y1="5922" x2="5127" y2= "5707" />
  <polyline class="fil2 str1" points="5907,5811 5210,5572 5210,5204 5883,4819 5820,4710 5127,4846 "/>
  <line class="fil2 str1" x1="6942" y1="3662" x2="6223" y2= "4938" />
  <line class="fil2 str1" x1="5637" y1="3920" x2="6380" y2= "3155" />
  <line class="fil2 str1" x1="3271" y1="1766" x2="6982" y2= "1766" />
  <line class="fil2 str1" x1="2429" y1="2608" x2="2429" y2= "6419" />
  <line class="fil2 str1" x1="7824" y1="2608" x2="7824" y2= "6419" />
  <line class="fil2 str1" x1="6982" y1="7261" x2="3271" y2= "7261" />
  <path class="fil2 str1" d="M7824 2608c233,-232 233,-609 0,-842 -232,-232 -609,-232 -842,0"/>
  <path class="fil2 str1" d="M7706 2490c167,-167 167,-438 0,-605 -167,-168 -438,-168 -605,0"/>
  <line class="fil2 str1" x1="7101" y1="1885" x2="7706" y2= "2490" />
  <path class="fil2 str1" d="M3271 1766c-150,-150 -369,-209 -575,-154 -205,55 -366,216 -421,421 -55,205 4,425 154,575"/>
  <path class="fil2 str1" d="M3153 1885c-108,-109 -266,-151 -414,-111 -147,39 -263,155 -302,302 -40,148 2,306 111,414"/>
  <line class="fil2 str1" x1="3153" y1="1885" x2="2548" y2= "2490" />
  <path class="fil2 str1" d="M6982 7261c233,233 610,233 842,0 233,-232 233,-609 0,-842"/>
  <path class="fil2 str1" d="M2429 6419c-150,151 -209,370 -154,576 55,205 216,365 421,420 206,56 425,-3 575,-154"/>
  <path class="fil2 str1" d="M2548 6538c-100,100 -144,242 -118,381"/>
  <path class="fil2 str1" d="M2772 7261c138,26 281,-18 381,-118"/>
  <line class="fil2 str1" x1="3153" y1="7143" x2="3021" y2= "7011" />
  <line class="fil2 str1" x1="2982" y1="6972" x2="2870" y2= "6860" />
  <line class="fil2 str1" x1="2830" y1="6821" x2="2719" y2= "6709" />
  <line class="fil2 str1" x1="2679" y1="6669" x2="2548" y2= "6538" />
  <line class="fil2 str1" x1="2719" y1="6709" x2="2559" y2= "6869" />
  <line class="fil2 str1" x1="2679" y1="6669" x2="2430" y2= "6919" />
  <line class="fil2 str1" x1="2870" y1="6860" x2="2710" y2= "7020" />
  <line class="fil2 str1" x1="2830" y1="6821" x2="2654" y2= "6997" />
  <line class="fil2 str1" x1="3021" y1="7011" x2="2772" y2= "7261" />
  <line class="fil2 str1" x1="2982" y1="6972" x2="2821" y2= "7133" />
  <path class="fil2 str1" d="M2559 6869c-52,56 -76,133 -65,209"/>
  <path class="fil2 str1" d="M2494 7078c60,-11 115,-39 160,-81"/>
  <path class="fil2 str1" d="M2710 7020c-50,47 -84,109 -97,176"/>
  <path class="fil2 str1" d="M2613 7196c75,15 153,-9 208,-63"/>
  <path class="fil2 str1" d="M7824 6919c26,-139 -18,-281 -118,-381"/>
  <path class="fil2 str1" d="M7101 7143c100,100 242,144 381,118"/>
  <line class="fil2 str1" x1="7101" y1="7143" x2="7232" y2= "7011" />
  <line class="fil2 str1" x1="7272" y1="6972" x2="7384" y2= "6860" />
  <line class="fil2 str1" x1="7423" y1="6821" x2="7535" y2= "6709" />
  <line class="fil2 str1" x1="7574" y1="6669" x2="7706" y2= "6538" />
  <line class="fil2 str1" x1="7535" y1="6709" x2="7695" y2= "6869" />
  <line class="fil2 str1" x1="7574" y1="6669" x2="7824" y2= "6919" />
  <line class="fil2 str1" x1="7384" y1="6860" x2="7543" y2= "7020" />
  <line class="fil2 str1" x1="7423" y1="6821" x2="7599" y2= "6997" />
  <line class="fil2 str1" x1="7232" y1="7011" x2="7482" y2= "7261" />
  <line class="fil2 str1" x1="7272" y1="6972" x2="7432" y2= "7133" />
  <path class="fil2 str1" d="M7759 7078c12,-76 -12,-153 -64,-209"/>
  <path class="fil2 str1" d="M7599 6997c45,42 100,70 160,81"/>
  <path class="fil2 str1" d="M7641 7196c-13,-67 -47,-129 -98,-176"/>
  <path class="fil2 str1" d="M7432 7133c55,54 133,78 209,63"/>
  <path class="fil1 str0" d="M3901 5163l130 -225 -720 -1276 604 -981 838 -180 374 264 373 -264 839 180 603 981 -719 1276 129 225 -406 429 -39 219 -697 -239 0 -368 673 -385 -63 -109 -693 136 -694 -136 -62 109 672 385 0 368 -696 239 -39 -219 -407 -429zm3923 1256l0 -3811c233,-232 233,-609 0,-842 -232,-232 -609,-232 -842,0l-3711 0c-150,-150 -369,-209 -575,-154 -205,55 -366,216 -421,421 -55,205 4,425 154,575l0 3811c-150,151 -209,370 -154,576 55,205 216,365 421,420 206,56 425,-3 575,-154l3711 0c233,233 610,233 842,0 233,-232 233,-609 0,-842zm-118 -3929l-605 -605c167,-168 438,-168 605,0 167,167 167,438 0,605zm-3340 3432l761 -215 760 215 -27 155 -733 185 -733 -185 -28 -155zm-1213 -4037l-605 605c-109,-108 -151,-266 -111,-414 39,-147 155,-263 302,-302 148,-40 306,2 414,111zm-605 4653l131 131 -249 250c-26,-139 18,-281 118,-381zm322 322l112 112 -161 161c-55,54 -133,78 -208,63 13,-67 47,-129 97,-176l160 -160zm-311 9l160 -160 111 112 -176 176c-45,42 -100,70 -160,81 -11,-76 13,-153 65,-209zm462 142l132 132c-100,100 -243,144 -381,118l249 -250zm4080 132l131 -132 250 250c-139,26 -281,-18 -381,-118zm498 -146l-176 -176 112 -112 160 160c52,56 76,133 64,209 -60,-11 -115,-39 -160,-81zm-25 -328l132 -131c100,100 144,242 118,381l-250 -250zm-302 303l112 -112 159 160c51,47 85,109 98,176 -76,15 -154,-9 -209,-63l-160 -161z"/>
  <path class="fil3" d="M9556 5934c-72,-10 -135,-45 -189,-104l-50 -93 0 -2444c59,-133 151,-200 277,-200 80,8 148,47 204,116l39 81 0 2116 2860 0c136,36 212,130 227,281 -33,142 -117,224 -250,247l-3118 0zm3673 0c-36,-10 -71,-23 -105,-38 -32,-16 -63,-43 -92,-82l-38 -77 0 -2447 61 -112c31,-31 66,-52 104,-65 39,-13 76,-20 112,-20 39,8 72,18 102,31 30,13 60,40 91,81l50 96 0 2421c-38,131 -134,202 -285,212zm1276 0c-224,-12 -421,-103 -591,-270 -115,-146 -187,-318 -215,-516l0 -1276c28,-211 122,-401 281,-571 157,-125 331,-195 521,-208l1965 0c247,23 457,126 632,309 126,159 196,340 208,543l0 1137c-12,255 -113,473 -304,655 -149,119 -319,185 -509,197l-1988 0zm2146 -589c67,-67 108,-146 124,-236l0 -1179c-5,-85 -42,-158 -108,-220 -59,-46 -122,-76 -189,-88l-1981 0c-67,4 -125,33 -174,84 -59,70 -93,152 -104,247l0 1125c11,101 51,188 124,263 48,38 104,60 166,65l1980 0 162 -61zm1045 589c-75,-10 -139,-45 -193,-104l-50 -93 0 -2436c26,-187 126,-255 301,-204l2775 2035 0 -1819 88 -150c65,-47 134,-70 209,-70 133,34 212,118 235,251l0 2343c-34,214 -152,281 -355,201l-2733 -2008 0 1853c-28,73 -78,132 -150,178l-127 23zm3793 0c-34,-10 -66,-22 -97,-35 -31,-12 -60,-35 -88,-69l-51 -93 0 -1356c34,-116 108,-185 224,-209l2860 0 139 78c29,41 50,80 63,117 15,38 16,84 2,141l-61 116c-31,20 -58,36 -81,48 -23,11 -52,22 -89,33l-2536 0 0 701 2856 0c147,23 224,117 232,281 -26,142 -109,224 -251,247l-3122 0zm-20 -2312l-146 -70c-31,-43 -51,-85 -62,-123 -10,-39 -12,-86 -8,-143 54,-110 135,-175 240,-193l3129 0c152,23 232,116 240,278 -8,38 -19,72 -31,100 -13,28 -35,58 -66,89l-123 62 -3173 0zm3666 2312c-74,-10 -138,-45 -192,-104l-50 -93 0 -2436c25,-187 125,-255 300,-204l2775 2035 0 -1819 89 -150c64,-47 133,-70 208,-70 134,34 212,118 235,251l0 2343c-33,214 -151,281 -354,201l-2733 -2008 0 1853c-28,73 -78,132 -151,178l-127 23zm4314 0c-111,-12 -216,-37 -318,-73 -102,-36 -194,-95 -276,-178 -59,-66 -105,-138 -137,-213 -32,-76 -56,-156 -71,-241l0 -1315c20,-118 53,-227 97,-327 43,-101 109,-196 196,-286 72,-66 151,-117 237,-150 86,-33 178,-52 276,-58l2143 0c103,13 200,38 293,75 92,38 176,101 251,191 61,77 103,160 125,249 21,89 28,183 21,283 -18,41 -40,77 -66,106 -25,30 -60,55 -104,75l-150 12 -127 -77c-57,-67 -83,-133 -79,-196 3,-65 -11,-110 -45,-135l-116 -54 -2142 0c-31,4 -63,14 -95,28 -32,14 -62,36 -91,64 -28,41 -51,85 -69,131 -18,46 -29,92 -35,139l0 1145c6,33 14,68 25,104 12,35 27,66 45,92 28,18 59,35 92,51 34,15 66,25 97,30l2177 0c73,-21 114,-72 124,-154l-4 -394 -1769 0c-98,-23 -156,-52 -175,-88 -20,-36 -35,-73 -47,-110 -11,-37 -13,-81 -5,-133 35,-136 114,-203 234,-200l2055 0c147,18 226,101 239,251l0 697c-5,98 -29,191 -69,281 -42,91 -104,170 -189,239 -62,42 -125,73 -189,95 -64,22 -135,36 -212,44l-2147 0zm3269 0c-36,-10 -71,-23 -105,-38 -33,-16 -64,-43 -92,-82l-39 -77 0 -2447 62 -112c31,-31 66,-52 104,-65 39,-13 76,-20 112,-20 39,8 72,18 102,31 29,13 60,40 91,81l50 96 0 2421c-39,131 -134,202 -285,212zm751 0c-74,-10 -139,-45 -193,-104l-50 -93 0 -2436c26,-187 126,-255 301,-204l2775 2035 0 -1819 89 -150c64,-47 133,-70 208,-70 134,34 212,118 235,251l0 2343c-34,214 -151,281 -355,201l-2732 -2008 0 1853c-29,73 -79,132 -151,178l-127 23zm3793 0c-33,-10 -66,-22 -97,-35 -30,-12 -59,-35 -88,-69l-50 -93 0 -1356c33,-116 108,-185 223,-209l2861 0 138 78c29,41 50,80 64,117 14,38 15,84 2,141l-62 116c-30,20 -57,36 -80,48 -24,11 -53,22 -89,33l-2537 0 0 701 2856 0c147,23 224,117 232,281 -26,142 -109,224 -251,247l-3122 0zm-20 -2312l-146 -70c-30,-43 -51,-85 -61,-123 -11,-39 -13,-86 -8,-143 54,-110 134,-175 239,-193l3130 0c151,23 231,116 239,278 -8,38 -18,72 -31,100 -13,28 -35,58 -66,89l-123 62 -3173 0z"/>
 </g>
</svg>
